<svg width="42" height="42" viewBox="0 0 42 42" fill="none" xmlns="http://www.w3.org/2000/svg">
<path d="M40.6286 11.743L38.2683 14.8006L37.7749 18.6327L33.9432 19.1257L30.8856 21.4861L27.828 19.1257L23.9963 18.6327L23.5029 14.8006L21.1426 11.743L23.5029 8.68585L23.9963 4.85373L27.828 4.36077L30.8856 2L33.9432 4.36077L37.7749 4.85373L38.2683 8.68585L40.6286 11.743Z" stroke="#40DDB6" stroke-width="2" stroke-miterlimit="10"/>
<path d="M36.1857 18.3202V29.8354L30.8856 26.284L25.5854 29.8354V18.3202" stroke="#40DDB6" stroke-width="2" stroke-miterlimit="10"/>
<path d="M23.0055 21.5668C21.4038 23.8273 18.7681 25.2878 15.8133 25.2878C11.215 25.2878 7.39041 21.751 7.03072 17.1669L5.99634 3.96817H21.9072" stroke="#40DDB6" stroke-width="2" stroke-miterlimit="10"/>
<path d="M6.78963 17.1896H4.58176C3.50185 17.1896 2.59239 16.3817 2.46539 15.3093L1.13231 8.99438C0.981917 7.72689 1.97243 6.6123 3.24869 6.6123H6.19432" stroke="#40DDB6" stroke-width="2" stroke-miterlimit="10"/>
<path d="M17.9841 24.8541C17.9841 24.8541 18.447 30.209 21.2235 32.5886" stroke="#40DDB6" stroke-width="2" stroke-miterlimit="10"/>
<path d="M13.7964 24.8541C13.7964 24.8541 13.3336 30.2089 10.5571 32.5885" stroke="#40DDB6" stroke-width="2" stroke-miterlimit="10"/>
<path d="M24.0875 36.8744H7.69287V34.4614C7.69287 33.2743 8.58061 32.3123 9.67598 32.3123H22.104C23.1993 32.3123 24.0871 33.2743 24.0871 34.4614V36.8744H24.0875Z" stroke="#40DDB6" stroke-width="2" stroke-miterlimit="10"/>
<path d="M25.9607 40.1698H5.81958V39.0235C5.81958 37.8364 6.70732 36.8744 7.80269 36.8744H23.9776C25.0729 36.8744 25.9607 37.8364 25.9607 39.0235V40.1698V40.1698Z" stroke="#40DDB6" stroke-width="2" stroke-miterlimit="10"/>
<path d="M5.81959 40.1697H25.9607V39.0234C25.9607 37.8363 25.073 36.8743 23.9776 36.8743H7.8027C6.70733 36.8743 5.81959 37.8363 5.81959 39.0234V40.1697V40.1697Z" stroke="#40DDB6" stroke-width="2" stroke-miterlimit="10"/>
<path d="M26.7542 13.8181L29.2661 15.6692L35.2819 8.00073" stroke="#40DDB6" stroke-width="2" stroke-miterlimit="10"/>
</svg>
